<svg xmlns="http://www.w3.org/2000/svg" viewBox="0 0 256 256" role="img" aria-labelledby="title desc">
  <title id="title">MyFileKit logo</title>
  <desc id="desc">A premium file toolkit mark with a folder, document, and check symbol.</desc>
  <defs>
    <linearGradient id="tile" x1="30" y1="24" x2="226" y2="232" gradientUnits="userSpaceOnUse">
      <stop stop-color="#101828"/>
      <stop offset="1" stop-color="#29384f"/>
    </linearGradient>
    <linearGradient id="folder" x1="42" y1="107" x2="213" y2="197" gradientUnits="userSpaceOnUse">
      <stop stop-color="#0f7fbd"/>
      <stop offset="1" stop-color="#075f99"/>
    </linearGradient>
    <linearGradient id="paper" x1="91" y1="48" x2="178" y2="160" gradientUnits="userSpaceOnUse">
      <stop stop-color="#ffffff"/>
      <stop offset="1" stop-color="#e8eef7"/>
    </linearGradient>
    <linearGradient id="accent" x1="104" y1="77" x2="200" y2="197" gradientUnits="userSpaceOnUse">
      <stop stop-color="#51c878"/>
      <stop offset="1" stop-color="#12975b"/>
    </linearGradient>
    <filter id="shadow" x="12" y="10" width="232" height="232" filterUnits="userSpaceOnUse" color-interpolation-filters="sRGB">
      <feDropShadow dx="0" dy="18" stdDeviation="13" flood-color="#102033" flood-opacity=".22"/>
    </filter>
  </defs>
  <rect width="256" height="256" rx="58" fill="#f7f9fc"/>
  <g filter="url(#shadow)">
    <rect x="24" y="24" width="208" height="208" rx="58" fill="url(#tile)"/>
    <rect x="43" y="43" width="170" height="170" rx="44" fill="none" stroke="#fff" stroke-opacity=".16" stroke-width="5"/>
    <path d="M76 64h79l31 31v82H76z" fill="#dce8f5" opacity=".72"/>
    <path d="M155 64v31h31z" fill="#b9cbe0"/>
    <path d="M92 47h82l34 34v104H92z" fill="url(#paper)" stroke="#101828" stroke-opacity=".18" stroke-width="4" stroke-linejoin="round"/>
    <path d="M174 47v34h34z" fill="#d5e1ee"/>
    <path d="M47 104h63l16 18h83v18H47z" fill="#0b6ea8" stroke="#fff" stroke-opacity=".18" stroke-width="4" stroke-linejoin="round"/>
    <path d="M43 122h170l-13 76H56z" fill="url(#folder)" stroke="#fff" stroke-opacity=".18" stroke-width="4" stroke-linejoin="round"/>
    <path d="M54 134h148" fill="none" stroke="#fff" stroke-opacity=".42" stroke-width="7" stroke-linecap="round"/>
    <path d="M85 159l27 27 64-72" fill="none" stroke="#fff" stroke-width="18" stroke-linecap="round" stroke-linejoin="round"/>
    <path d="M116 91h50M116 115h62M116 139h36" fill="none" stroke="#101828" stroke-opacity=".28" stroke-width="8" stroke-linecap="round"/>
    <circle cx="188" cy="180" r="11" fill="url(#accent)"/>
  </g>
</svg>
